<svg height="463pt" viewBox="0 -24 463.97533 463" width="463pt" xmlns="http://www.w3.org/2000/svg"><path d="m439.832031 102.4375c-42.71875-82.316406-127.425781-123.066406-189.195312-91.011719-61.769531 32.058594-77.210938 124.777344-34.492188 207.097657 42.71875 82.316406 127.425781 123.066406 189.195313 91.007812 61.769531-32.054688 77.214844-124.773438 34.492187-207.09375zm0 0" fill="#b5554e"/><path d="m213.335938 107.4375c-61.769532-32.054688-146.472657 8.691406-189.195313 91.011719-42.71875 82.316406-27.273437 175.039062 34.496094 207.09375 61.769531 32.054687 146.476562-8.691407 189.195312-91.011719s27.273438-175.039062-34.496093-207.09375zm0 0" fill="#b5554e"/><path d="m439.921875 102.621094c-42.648437-82.359375-127.335937-123.214844-189.152344-91.253906-2.214843 1.140624-4.238281 2.535156-6.34375 3.832031-2.769531 14.1875-.171875 28.902343 7.289063 41.285156 20.796875 36 48.511718 20 69.3125 56 20.796875 36-6.921875 52 13.878906 88s48.511719 20 69.320312 56c12 20.746094 7.886719 34.863281 6.222657 49.976563 57.3125-34.472657 70.855469-123.925782 29.472656-203.839844zm0 0" fill="#efa66a"/><path d="m404.226562 256.484375c-20.800781-36-48.511718-20-69.320312-56s6.910156-52-13.878906-88c-20.792969-36-48.515625-20-69.3125-56-7.457032-12.378906-10.050782-27.082031-7.289063-41.261719-56.382812 34.917969-69.496093 123.75-28.375 203.152344 42.648438 82.398438 127.335938 123.199219 189.152344 91.253906 1.839844-.945312 3.496094-2.121094 5.246094-3.199218 1.664062-15.113282 5.761719-29.230469-6.222657-49.945313zm0 0" fill="#b5554e"/><path d="m24.050781 198.621094c42.648438-82.359375 127.335938-123.199219 189.152344-91.253906 2.214844 1.140624 4.238281 2.535156 6.34375 3.832031 2.769531 14.1875.171875 28.902343-7.289063 41.285156-20.800781 36-48.511718 20-69.3125 56-20.800781 36 6.921876 52-13.878906 88-20.800781 36-48.511718 20-69.320312 56-12 20.746094-7.886719 34.863281-6.222656 49.984375-57.3125-34.480469-70.859376-123.933594-29.472657-203.847656zm0 0" fill="#b5554e"/><path d="m59.746094 352.484375c20.800781-36 48.511718-20 69.320312-56s-6.914062-52 13.878906-88c20.792969-36 48.511719-20 69.3125-56 7.453126-12.378906 10.050782-27.082031 7.289063-41.261719 56.382813 34.917969 69.496094 123.75 28.375 203.152344-42.648437 82.398438-127.335937 123.199219-189.152344 91.253906-1.839843-.945312-3.496093-2.121094-5.246093-3.199218-1.664063-15.113282-5.761719-29.230469 6.222656-49.945313zm0 0" fill="#efa66a"/></svg>