<?xml version="1.0" encoding="utf-8"?>
<!-- Generator: Adobe Illustrator 20.1.0, SVG Export Plug-In . SVG Version: 6.00 Build 0)  -->
<svg version="1.1" id="Capa_1" xmlns="http://www.w3.org/2000/svg" xmlns:xlink="http://www.w3.org/1999/xlink" x="0px" y="0px"
	 viewBox="0 0 320.2 430.9" style="enable-background:new 0 0 320.2 430.9;" xml:space="preserve">
<style type="text/css">
	.st0{fill:#FECC00;}
	.st1{fill:#CEA600;}
	.st2{fill:#F0F7FF;}
	.st3{fill:#DFE7F4;}
</style>
<g>
	<g>
		<path class="st0" d="M310.4,212.6c-12.8,37.2-36.3,68.9-58.9,99.5c-22.3,30.2-13.6,18.7-79.1,112.3c-6,8.5-18.6,8.5-24.6,0
			C87,337.8,94.5,347,68.7,312.1c-22.6-30.7-46.1-62.4-58.9-99.5c-18.6-53.8-10.6-107,22.6-149.9C62.8,23.4,110.5,0,160.1,0
			s97.3,23.4,127.7,62.7C322.3,107.3,328.2,161,310.4,212.6z"/>
	</g>
	<path class="st1" d="M310.4,212.6c-12.8,37.2-36.3,68.9-58.9,99.5c-22.3,30.2-13.6,18.7-79.1,112.3c-2.8,4-7.4,6.4-12.3,6.4V0
		c49.6,0,97.3,23.4,127.7,62.7C322.3,107.3,328.2,161,310.4,212.6L310.4,212.6z"/>
	<g>
		<path class="st2" d="M229.8,161.3c0,38.4-31.3,69.7-69.7,69.7s-69.7-31.3-69.7-69.7c0-38.4,31.3-69.7,69.7-69.7
			S229.8,122.9,229.8,161.3z"/>
	</g>
	<path class="st3" d="M229.8,161.3c0,38.4-31.3,69.7-69.7,69.7V91.6C198.5,91.6,229.8,122.9,229.8,161.3z"/>
</g>
</svg>
